<svg width="48" height="37" viewBox="0 0 48 37" fill="none" xmlns="http://www.w3.org/2000/svg">
<mask id="path-1-inside-1" fill="white">
<path fill-rule="evenodd" clip-rule="evenodd" d="M16.642 0C15.9466 0 15.3011 0.36124 14.9373 0.953967L11.8692 5.95397C11.8598 5.96926 11.8506 5.98461 11.8417 6H8C3.58172 6 0 9.58172 0 14V29C0 33.4183 3.58172 37 8 37H40C44.4183 37 48 33.4183 48 29V14C48 9.58172 44.4183 6 40 6H34.9953C34.9739 5.96323 34.9512 5.92675 34.9271 5.8906L31.5937 0.8906C31.2228 0.334202 30.5983 0 29.9296 0H16.642Z"/>
</mask>
<path d="M14.9373 0.953967L17.4943 2.52302L17.4943 2.52301L14.9373 0.953967ZM11.8692 5.95397L9.31219 4.38492L9.31215 4.38498L11.8692 5.95397ZM11.8417 6V9H13.5705L14.4374 7.50417L11.8417 6ZM34.9953 6L32.4026 7.50922L33.2704 9H34.9953V6ZM34.9271 5.8906L37.4233 4.22656L37.4232 4.2265L34.9271 5.8906ZM31.5937 0.8906L29.0976 2.5547V2.5547L31.5937 0.8906ZM17.4943 2.52301C17.3124 2.81938 16.9897 3 16.642 3V-3C14.9034 -3 13.2897 -2.0969 12.3804 -0.61508L17.4943 2.52301ZM14.4261 7.52302L17.4943 2.52302L12.3804 -0.615082L9.31219 4.38492L14.4261 7.52302ZM14.4374 7.50417C14.4336 7.51058 14.4299 7.51685 14.4262 7.52296L9.31215 4.38498C9.28963 4.42168 9.26759 4.45863 9.24603 4.49583L14.4374 7.50417ZM8 9H11.8417V3H8V9ZM3 14C3 11.2386 5.23858 9 8 9V3C1.92487 3 -3 7.92487 -3 14H3ZM3 29V14H-3V29H3ZM8 34C5.23858 34 3 31.7614 3 29H-3C-3 35.0751 1.92487 40 8 40V34ZM40 34H8V40H40V34ZM45 29C45 31.7614 42.7614 34 40 34V40C46.0751 40 51 35.0751 51 29H45ZM45 14V29H51V14H45ZM40 9C42.7614 9 45 11.2386 45 14H51C51 7.92487 46.0751 3 40 3V9ZM34.9953 9H40V3H34.9953V9ZM32.4309 7.55464C32.4214 7.54038 32.4119 7.52525 32.4026 7.50922L37.588 4.49078C37.5359 4.40121 37.481 4.31311 37.4233 4.22656L32.4309 7.55464ZM29.0976 2.5547L32.4309 7.5547L37.4232 4.2265L34.0899 -0.773501L29.0976 2.5547ZM29.9296 3C29.5953 3 29.283 2.8329 29.0976 2.5547L34.0899 -0.773501C33.1626 -2.1645 31.6014 -3 29.9296 -3V3ZM16.642 3H29.9296V-3H16.642V3Z" fill="#152C5B" mask="url(#path-1-inside-1)"/>
<path d="M30.5 21C30.5 24.5899 27.5898 27.5 24 27.5C20.4101 27.5 17.5 24.5899 17.5 21C17.5 17.4101 20.4101 14.5 24 14.5C27.5898 14.5 30.5 17.4101 30.5 21Z" stroke="#FF498B" stroke-width="3"/>
<path d="M42 13L35 13" stroke="#152C5B" stroke-width="3" stroke-linecap="round" stroke-linejoin="round"/>
</svg>
