<svg width="32" height="48" viewBox="0 0 32 48" fill="none" xmlns="http://www.w3.org/2000/svg">
<path d="M30.5 39.5C30.5 41.0205 29.3144 42.749 26.61 44.1857C23.9714 45.5875 20.2228 46.5 16 46.5C11.7772 46.5 8.02859 45.5875 5.39002 44.1857C2.6856 42.749 1.5 41.0205 1.5 39.5C1.5 37.9795 2.6856 36.251 5.39002 34.8143C8.02859 33.4125 11.7772 32.5 16 32.5C20.2228 32.5 23.9714 33.4125 26.61 34.8143C29.3144 36.251 30.5 37.9795 30.5 39.5Z" stroke="#152C5B" stroke-width="3"/>
<path d="M29.5 13.2911C29.5 16.6816 27.8993 23.647 25.2304 29.8015C23.9031 32.8623 22.3563 35.6152 20.6942 37.5768C18.999 39.5775 17.407 40.5 16 40.5C14.593 40.5 13.001 39.5775 11.3058 37.5768C9.6437 35.6152 8.09689 32.8623 6.76958 29.8015C4.10073 23.647 2.5 16.6816 2.5 13.2911C2.5 6.94446 8.36848 1.5 16 1.5C23.6315 1.5 29.5 6.94446 29.5 13.2911Z" fill="white" stroke="#152C5B" stroke-width="3"/>
<circle cx="16" cy="13" r="4.5" stroke="#FF498B" stroke-width="3"/>
</svg>
