<svg width="48" height="48" viewBox="0 0 48 48" fill="none" xmlns="http://www.w3.org/2000/svg">
<rect width="48" height="48" fill="white"/>
<path d="M8.5 10C8.5 5.30558 12.3056 1.5 17 1.5H31C35.6944 1.5 39.5 5.30558 39.5 10V20.5H8.5V10Z" stroke="#152C5B" stroke-width="3"/>
<mask id="path-2-inside-1" fill="white">
<path d="M12 13C12 11.8954 12.8954 11 14 11H20C21.1046 11 22 11.8954 22 13V21H12V13Z"/>
</mask>
<path d="M12 13C12 11.8954 12.8954 11 14 11H20C21.1046 11 22 11.8954 22 13V21H12V13Z" stroke="#FF498B" stroke-width="6" mask="url(#path-2-inside-1)"/>
<mask id="path-3-inside-2" fill="white">
<path d="M26 13C26 11.8954 26.8954 11 28 11H34C35.1046 11 36 11.8954 36 13V21H26V13Z"/>
</mask>
<path d="M26 13C26 11.8954 26.8954 11 28 11H34C35.1046 11 36 11.8954 36 13V21H26V13Z" stroke="#FF498B" stroke-width="6" mask="url(#path-3-inside-2)"/>
<mask id="path-4-inside-3" fill="white">
<path d="M0 23C0 20.7909 1.79086 19 4 19H44C46.2091 19 48 20.7909 48 23V34C48 35.1046 47.1046 36 46 36H2C0.895431 36 0 35.1046 0 34V23Z"/>
</mask>
<path d="M0 23C0 20.7909 1.79086 19 4 19H44C46.2091 19 48 20.7909 48 23V34C48 35.1046 47.1046 36 46 36H2C0.895431 36 0 35.1046 0 34V23Z" stroke="#152C5B" stroke-width="6" mask="url(#path-4-inside-3)"/>
<path d="M6 36V42" stroke="#152C5B" stroke-width="3" stroke-linecap="round" stroke-linejoin="round"/>
<path d="M6 36V42" stroke="#152C5B" stroke-width="3" stroke-linecap="round" stroke-linejoin="round"/>
<path d="M6 36V42" stroke="#152C5B" stroke-width="3" stroke-linecap="round" stroke-linejoin="round"/>
<path d="M6 36V42" stroke="#152C5B" stroke-width="3" stroke-linecap="round" stroke-linejoin="round"/>
<path d="M42 39L6 39" stroke="#152C5B" stroke-width="3" stroke-linecap="round" stroke-linejoin="round"/>
<path d="M42 39L6 39" stroke="#152C5B" stroke-width="3" stroke-linecap="round" stroke-linejoin="round"/>
<path d="M42 39L6 39" stroke="#152C5B" stroke-width="3" stroke-linecap="round" stroke-linejoin="round"/>
<path d="M42 39L6 39" stroke="#152C5B" stroke-width="3" stroke-linecap="round" stroke-linejoin="round"/>
<path d="M42 36V42" stroke="#152C5B" stroke-width="3" stroke-linecap="round" stroke-linejoin="round"/>
<path d="M42 36V42" stroke="#152C5B" stroke-width="3" stroke-linecap="round" stroke-linejoin="round"/>
<path d="M42 36V42" stroke="#152C5B" stroke-width="3" stroke-linecap="round" stroke-linejoin="round"/>
<path d="M42 36V42" stroke="#152C5B" stroke-width="3" stroke-linecap="round" stroke-linejoin="round"/>
</svg>
